<svg id="Tło" xmlns="http://www.w3.org/2000/svg" xmlns:xlink="http://www.w3.org/1999/xlink" viewBox="0 0 64 64"><defs><style>.cls-1{fill:#424656;}.cls-2{fill:url(#Gradient_bez_nazwy_57);}.cls-3{fill:url(#Gradient_bez_nazwy_52);}.cls-4{fill:url(#Gradient_bez_nazwy_18);}</style><linearGradient id="Gradient_bez_nazwy_57" x1="2.87" y1="31.5" x2="23" y2="31.5" gradientUnits="userSpaceOnUse"><stop offset="0" stop-color="#3c7dd9"/><stop offset="0.3" stop-color="#5f8cd0"/><stop offset="0.77" stop-color="#92a2c2"/><stop offset="1" stop-color="#a6abbd"/></linearGradient><radialGradient id="Gradient_bez_nazwy_52" cx="33.6" cy="38.01" r="7.88" gradientTransform="translate(-0.95 -3.51) scale(1.02 1.08)" gradientUnits="userSpaceOnUse"><stop offset="0" stop-color="#3c7dd9"/><stop offset="0.3" stop-color="#5f8cd0"/><stop offset="0.77" stop-color="#92a2c2"/><stop offset="1" stop-color="#a6abbd"/></radialGradient><linearGradient id="Gradient_bez_nazwy_18" x1="45.02" y1="33.77" x2="60.42" y2="33.77" gradientUnits="userSpaceOnUse"><stop offset="0" stop-color="#a6abbd"/><stop offset="1" stop-color="#3c7dd9"/></linearGradient></defs><rect class="cls-1" width="64" height="64" rx="10"/><path class="cls-2" d="M22,33a8.17,8.17,0,0,0-3.14-2.92,20.15,20.15,0,0,0-5.37-2.28q-3.83-1-4.81-2A2.45,2.45,0,0,1,7.87,24a2.3,2.3,0,0,1,.83-1.86A5.4,5.4,0,0,1,12.27,21a5.06,5.06,0,0,1,3.1.83l-.19.19-2.11,2.18,8.13,1.54V16l-2,2a10.39,10.39,0,0,0-6.84-2,11.51,11.51,0,0,0-5.1,1,7.39,7.39,0,0,0-3.24,3,8.63,8.63,0,0,0-1.12,4.28,8.37,8.37,0,0,0,2.39,6q1.7,1.75,5.9,3c2.18.63,3.58,1.06,4.19,1.31A4.27,4.27,0,0,1,17.23,36a3,3,0,0,1,.54,1.81,3.89,3.89,0,0,1-1.28,2.89,5.28,5.28,0,0,1-3.81,1.24A9.28,9.28,0,0,1,8.89,40.5L11,38.31,2.87,36.78v9.75l2.18-2.19,0,0C6.84,46.12,9.35,47,12.63,47a13,13,0,0,0,5.63-1.09,7.8,7.8,0,0,0,3.5-3.34A9.81,9.81,0,0,0,23,37.74,10,10,0,0,0,22,33Z"/><path class="cls-3" d="M30.11,28.09V39.9a3.92,3.92,0,0,0,.53,2.24,1.77,1.77,0,0,0,1.58.76,2.86,2.86,0,0,0,2-.9,15.1,15.1,0,0,0,2-2.44V28.09h4.11V46.22H36.77l-.1-2.68a14.1,14.1,0,0,1-1.09,1.27,6.44,6.44,0,0,1-1.21,1,5.53,5.53,0,0,1-1.42.63,6,6,0,0,1-1.69.22,5.49,5.49,0,0,1-2.3-.45,4.49,4.49,0,0,1-1.65-1.3,5.89,5.89,0,0,1-1-2A9.61,9.61,0,0,1,26,40.26V28.09Z"/><path class="cls-4" d="M60.42,36.83a12.66,12.66,0,0,1-.66,4.32,8.17,8.17,0,0,1-1.86,3A7.29,7.29,0,0,1,55.1,46a10.33,10.33,0,0,1-3.53.58,20.08,20.08,0,0,1-3.48-.29,20.9,20.9,0,0,1-3.07-.8V21h4.11v5.93L49,30.5a7.62,7.62,0,0,1,2.17-2,6,6,0,0,1,5.67-.12,5.4,5.4,0,0,1,2,1.83A8.76,8.76,0,0,1,60,33,15.7,15.7,0,0,1,60.42,36.83ZM56.11,37a14.18,14.18,0,0,0-.2-2.55,5.73,5.73,0,0,0-.59-1.73,2.47,2.47,0,0,0-.92-1,2.51,2.51,0,0,0-1.26-.32,2.9,2.9,0,0,0-2,.9,15.39,15.39,0,0,0-2,2.42v7.93a6.08,6.08,0,0,0,1.2.32,8.9,8.9,0,0,0,1.46.13,3.78,3.78,0,0,0,1.78-.43,4,4,0,0,0,1.37-1.22,6.08,6.08,0,0,0,.87-1.92A9.89,9.89,0,0,0,56.11,37Z"/></svg>